<svg width="80" height="80" viewBox="0 0 80 80" fill="none" xmlns="http://www.w3.org/2000/svg">
<g clip-path="url(#clip0_1216_82035)">
<path d="M40 80C62.0914 80 80 62.0914 80 40C80 17.9086 62.0914 0 40 0C17.9086 0 0 17.9086 0 40C0 62.0914 17.9086 80 40 80Z" fill="url(#paint0_linear_1216_82035)"/>
<path d="M39.9999 71.6338C56.3949 71.6338 69.6858 58.3429 69.6858 41.9479C69.6858 25.5528 56.3949 12.262 39.9999 12.262C23.6048 12.262 10.314 25.5528 10.314 41.9479C10.314 58.3429 23.6048 71.6338 39.9999 71.6338Z" fill="#FFA400"/>
<path d="M4.9868 41.461C4.17842 41.461 3.52588 40.8084 3.52588 40.0001C3.52588 36.2991 4.08103 32.6468 5.16211 29.1503C5.4056 28.3809 6.22371 27.9523 6.99313 28.1861C7.76255 28.4296 8.19108 29.2477 7.95734 30.0171C6.95417 33.2311 6.44772 36.5912 6.44772 40.0001C6.44772 40.8084 5.79518 41.461 4.9868 41.461Z" fill="#FFEBA3"/>
<path d="M10.9667 21.8847C10.6843 21.8847 10.4018 21.8068 10.1486 21.6314C9.47656 21.1834 9.30125 20.2679 9.759 19.6056C14.6287 12.3887 21.9139 7.14885 30.2606 4.8406C31.03 4.62633 31.8384 5.08408 32.0526 5.86324C32.2669 6.6424 31.8092 7.44104 31.03 7.66504C23.3456 9.78825 16.6545 14.6093 12.1647 21.2516C11.8822 21.6704 11.4245 21.8944 10.957 21.8944L10.9667 21.8847Z" fill="#FFEBA3"/>
<path d="M69.6858 40.0096C69.6858 56.4012 56.3914 69.6858 39.9999 69.6858C23.6083 69.6858 10.314 56.4012 10.314 40.0096C10.314 39.1818 10.3432 38.3734 10.4211 37.565C11.658 22.3033 24.4265 10.3237 39.9999 10.3237C55.5733 10.3237 68.3417 22.3033 69.5786 37.565C69.6566 38.3734 69.6858 39.1818 69.6858 40.0096Z" fill="#FFD500"/>
<path d="M69.5789 37.565C68.342 52.817 55.5736 64.8161 40.0002 64.8161C24.4267 64.8161 11.6583 52.817 10.4214 37.565C11.6583 22.3033 24.4267 10.3237 40.0002 10.3237C55.5736 10.3237 68.342 22.3033 69.5789 37.565V37.565Z" fill="#FFED00"/>
<path d="M57.9209 23.92C63.9496 22.4981 65.0989 21.3586 66.5111 15.3298C67.9331 21.3586 69.0726 22.5078 75.1013 23.92C69.0726 25.342 67.9233 26.4815 66.5111 32.5103C65.0891 26.4815 63.9496 25.3323 57.9209 23.92V23.92Z" fill="#F8FFFF"/>
<path d="M10.4214 57.6965C14.7652 56.6739 15.593 55.846 16.6157 51.5022C17.6383 55.846 18.4662 56.6739 22.81 57.6965C18.4662 58.7191 17.6383 59.547 16.6157 63.8908C15.593 59.547 14.7652 58.7191 10.4214 57.6965V57.6965Z" fill="#F8FFFF"/>
<path d="M17.7065 20.0436C19.7713 19.5566 20.1609 19.1671 20.6479 17.1023C21.1348 19.1671 21.5244 19.5566 23.5892 20.0436C21.5244 20.5306 21.1348 20.9202 20.6479 22.9849C20.1609 20.9202 19.7713 20.5306 17.7065 20.0436Z" fill="#F8FFFF"/>
<path d="M59.3916 61.7287C61.4564 61.2417 61.8459 60.8521 62.3329 58.7874C62.8199 60.8521 63.2095 61.2417 65.2742 61.7287C63.2095 62.2156 62.8199 62.6052 62.3329 64.67C61.8459 62.6052 61.4564 62.2156 59.3916 61.7287V61.7287Z" fill="#F8FFFF"/>
<path d="M50.5382 35.6758L43.5063 23.4917C42.3181 21.4367 39.3475 21.4367 38.1593 23.4917L33.2896 31.9358L30.5917 31.2151C28.5854 30.6697 26.7349 32.5202 27.2803 34.5363L28.9652 40.8182C28.4101 44.6848 29.91 48.7364 32.6955 51.4537C36.4452 55.8657 43.9153 56.9176 48.3078 52.2329C48.7266 51.8336 49.1162 51.4148 49.4473 50.9668C53.1581 46.9249 54.2197 40.4189 50.5382 35.666V35.6758ZM40.8377 49.5058C36.601 49.6422 33.9811 44.4024 36.5425 41.0909L39.6494 35.705C40.1754 34.7895 41.4902 34.7895 42.0161 35.705L45.1328 41.0909C47.6845 44.3926 45.0646 49.6422 40.8377 49.5058V49.5058Z" fill="url(#paint1_linear_1216_82035)"/>
<path d="M33.9224 24.3097L32.6271 26.0239C32.3154 26.4329 31.7018 26.4329 31.3902 26.0239L30.0948 24.3097C29.8903 24.037 29.8903 23.6572 30.0948 23.3845L31.3902 21.6703C31.7018 21.2613 32.3154 21.2613 32.6271 21.6703L33.9224 23.3845C34.1269 23.6572 34.1269 24.037 33.9224 24.3097Z" fill="#FFD500"/>
<path d="M41.8605 18.4953L41.169 19.4108C41.0034 19.6348 40.6723 19.6348 40.5067 19.4108L39.8152 18.4953C39.7081 18.3492 39.7081 18.1446 39.8152 17.9986L40.5067 17.083C40.6723 16.859 41.0034 16.859 41.169 17.083L41.8605 17.9986C41.9676 18.1446 41.9676 18.3492 41.8605 18.4953Z" fill="#FFD500"/>
</g>
<defs>
<linearGradient id="paint0_linear_1216_82035" x1="40" y1="4.36328" x2="40" y2="77.5067" gradientUnits="userSpaceOnUse">
<stop stop-color="#FFDE00"/>
<stop offset="1" stop-color="#FFB600"/>
</linearGradient>
<linearGradient id="paint1_linear_1216_82035" x1="40.0001" y1="55.3008" x2="40.0001" y2="21.9529" gradientUnits="userSpaceOnUse">
<stop stop-color="#FFDE00"/>
<stop offset="1" stop-color="#FFB600"/>
</linearGradient>
<clipPath id="clip0_1216_82035">
<rect width="80" height="80" fill="white"/>
</clipPath>
</defs>
</svg>
